<mxfile host="app.diagrams.net" modified="2023-12-20T09:30:07.757Z" agent="Mozilla/5.0 (Windows NT 10.0; Win64; x64) AppleWebKit/537.36 (KHTML, like Gecko) Chrome/120.0.0.0 Safari/537.36" etag="HiN4xwll3SKQ7oUVsVMR" version="22.1.11" type="google">
  <diagram id="C5RBs43oDa-KdzZeNtuy" name="Page-1">
    <mxGraphModel grid="1" page="1" gridSize="10" guides="1" tooltips="1" connect="1" arrows="1" fold="1" pageScale="1" pageWidth="827" pageHeight="1169" math="0" shadow="0">
      <root>
        <mxCell id="WIyWlLk6GJQsqaUBKTNV-0" />
        <mxCell id="WIyWlLk6GJQsqaUBKTNV-1" parent="WIyWlLk6GJQsqaUBKTNV-0" />
        <mxCell id="p3MnmlPfvSt7IH9TtVbM-1" style="edgeStyle=orthogonalEdgeStyle;rounded=0;orthogonalLoop=1;jettySize=auto;html=1;exitX=0.5;exitY=1;exitDx=0;exitDy=0;" edge="1" parent="WIyWlLk6GJQsqaUBKTNV-1" source="p3MnmlPfvSt7IH9TtVbM-0">
          <mxGeometry relative="1" as="geometry">
            <mxPoint x="235" y="100" as="targetPoint" />
          </mxGeometry>
        </mxCell>
        <mxCell id="p3MnmlPfvSt7IH9TtVbM-0" value="start" style="ellipse;whiteSpace=wrap;html=1;" vertex="1" parent="WIyWlLk6GJQsqaUBKTNV-1">
          <mxGeometry x="190" y="30" width="90" height="40" as="geometry" />
        </mxCell>
        <mxCell id="p3MnmlPfvSt7IH9TtVbM-3" style="edgeStyle=orthogonalEdgeStyle;rounded=0;orthogonalLoop=1;jettySize=auto;html=1;exitX=0.5;exitY=1;exitDx=0;exitDy=0;" edge="1" parent="WIyWlLk6GJQsqaUBKTNV-1" source="p3MnmlPfvSt7IH9TtVbM-2">
          <mxGeometry relative="1" as="geometry">
            <mxPoint x="235" y="170" as="targetPoint" />
          </mxGeometry>
        </mxCell>
        <mxCell id="p3MnmlPfvSt7IH9TtVbM-2" value="Declare a,b,c,n,i" style="rounded=0;whiteSpace=wrap;html=1;" vertex="1" parent="WIyWlLk6GJQsqaUBKTNV-1">
          <mxGeometry x="150" y="110" width="170" height="30" as="geometry" />
        </mxCell>
        <mxCell id="p3MnmlPfvSt7IH9TtVbM-5" style="edgeStyle=orthogonalEdgeStyle;rounded=0;orthogonalLoop=1;jettySize=auto;html=1;exitX=0.5;exitY=1;exitDx=0;exitDy=0;" edge="1" parent="WIyWlLk6GJQsqaUBKTNV-1" source="p3MnmlPfvSt7IH9TtVbM-4">
          <mxGeometry relative="1" as="geometry">
            <mxPoint x="235" y="230" as="targetPoint" />
          </mxGeometry>
        </mxCell>
        <mxCell id="p3MnmlPfvSt7IH9TtVbM-4" value="Initialize a=1,b=1 and c=0" style="rounded=0;whiteSpace=wrap;html=1;" vertex="1" parent="WIyWlLk6GJQsqaUBKTNV-1">
          <mxGeometry x="150" y="170" width="170" height="30" as="geometry" />
        </mxCell>
        <mxCell id="p3MnmlPfvSt7IH9TtVbM-7" style="edgeStyle=orthogonalEdgeStyle;rounded=0;orthogonalLoop=1;jettySize=auto;html=1;exitX=0.5;exitY=1;exitDx=0;exitDy=0;" edge="1" parent="WIyWlLk6GJQsqaUBKTNV-1" source="p3MnmlPfvSt7IH9TtVbM-6">
          <mxGeometry relative="1" as="geometry">
            <mxPoint x="230" y="290" as="targetPoint" />
          </mxGeometry>
        </mxCell>
        <mxCell id="p3MnmlPfvSt7IH9TtVbM-6" value="input n" style="shape=parallelogram;perimeter=parallelogramPerimeter;whiteSpace=wrap;html=1;fixedSize=1;" vertex="1" parent="WIyWlLk6GJQsqaUBKTNV-1">
          <mxGeometry x="150" y="230" width="160" height="30" as="geometry" />
        </mxCell>
        <mxCell id="p3MnmlPfvSt7IH9TtVbM-9" style="edgeStyle=orthogonalEdgeStyle;rounded=0;orthogonalLoop=1;jettySize=auto;html=1;exitX=1;exitY=0.5;exitDx=0;exitDy=0;" edge="1" parent="WIyWlLk6GJQsqaUBKTNV-1" source="p3MnmlPfvSt7IH9TtVbM-8">
          <mxGeometry relative="1" as="geometry">
            <mxPoint x="360" y="340" as="targetPoint" />
          </mxGeometry>
        </mxCell>
        <mxCell id="p3MnmlPfvSt7IH9TtVbM-13" style="edgeStyle=orthogonalEdgeStyle;rounded=0;orthogonalLoop=1;jettySize=auto;html=1;exitX=0;exitY=0.5;exitDx=0;exitDy=0;" edge="1" parent="WIyWlLk6GJQsqaUBKTNV-1" source="p3MnmlPfvSt7IH9TtVbM-8">
          <mxGeometry relative="1" as="geometry">
            <mxPoint x="120" y="520" as="targetPoint" />
          </mxGeometry>
        </mxCell>
        <mxCell id="p3MnmlPfvSt7IH9TtVbM-8" value="i&amp;lt;=n" style="rounded=0;whiteSpace=wrap;html=1;" vertex="1" parent="WIyWlLk6GJQsqaUBKTNV-1">
          <mxGeometry x="175" y="290" width="95" height="30" as="geometry" />
        </mxCell>
        <mxCell id="p3MnmlPfvSt7IH9TtVbM-11" style="edgeStyle=orthogonalEdgeStyle;rounded=0;orthogonalLoop=1;jettySize=auto;html=1;exitX=0.5;exitY=1;exitDx=0;exitDy=0;" edge="1" parent="WIyWlLk6GJQsqaUBKTNV-1" source="p3MnmlPfvSt7IH9TtVbM-10">
          <mxGeometry relative="1" as="geometry">
            <mxPoint x="370" y="440" as="targetPoint" />
          </mxGeometry>
        </mxCell>
        <mxCell id="p3MnmlPfvSt7IH9TtVbM-10" value="c=a+b&lt;br&gt;a=b&lt;br&gt;b=c" style="rounded=0;whiteSpace=wrap;html=1;" vertex="1" parent="WIyWlLk6GJQsqaUBKTNV-1">
          <mxGeometry x="310" y="340" width="120" height="60" as="geometry" />
        </mxCell>
        <mxCell id="p3MnmlPfvSt7IH9TtVbM-17" style="edgeStyle=elbowEdgeStyle;rounded=0;orthogonalLoop=1;jettySize=auto;html=1;exitX=0.5;exitY=1;exitDx=0;exitDy=0;entryX=1;entryY=0.5;entryDx=0;entryDy=0;" edge="1" parent="WIyWlLk6GJQsqaUBKTNV-1" source="p3MnmlPfvSt7IH9TtVbM-12" target="p3MnmlPfvSt7IH9TtVbM-14">
          <mxGeometry relative="1" as="geometry" />
        </mxCell>
        <mxCell id="p3MnmlPfvSt7IH9TtVbM-12" value="print c" style="shape=parallelogram;perimeter=parallelogramPerimeter;whiteSpace=wrap;html=1;fixedSize=1;" vertex="1" parent="WIyWlLk6GJQsqaUBKTNV-1">
          <mxGeometry x="310" y="440" width="120" height="30" as="geometry" />
        </mxCell>
        <mxCell id="p3MnmlPfvSt7IH9TtVbM-14" value="end" style="ellipse;whiteSpace=wrap;html=1;" vertex="1" parent="WIyWlLk6GJQsqaUBKTNV-1">
          <mxGeometry x="180" y="490" width="110" height="50" as="geometry" />
        </mxCell>
        <mxCell id="p3MnmlPfvSt7IH9TtVbM-18" value="" style="endArrow=classic;html=1;rounded=0;entryX=0;entryY=0.5;entryDx=0;entryDy=0;" edge="1" parent="WIyWlLk6GJQsqaUBKTNV-1" target="p3MnmlPfvSt7IH9TtVbM-14">
          <mxGeometry width="50" height="50" relative="1" as="geometry">
            <mxPoint x="120" y="520" as="sourcePoint" />
            <mxPoint x="170" y="470" as="targetPoint" />
          </mxGeometry>
        </mxCell>
        <mxCell id="p3MnmlPfvSt7IH9TtVbM-19" value="yes" style="text;html=1;align=center;verticalAlign=middle;resizable=0;points=[];autosize=1;strokeColor=none;fillColor=none;" vertex="1" parent="WIyWlLk6GJQsqaUBKTNV-1">
          <mxGeometry x="290" y="268" width="40" height="30" as="geometry" />
        </mxCell>
        <mxCell id="p3MnmlPfvSt7IH9TtVbM-20" value="no" style="text;html=1;align=center;verticalAlign=middle;resizable=0;points=[];autosize=1;strokeColor=none;fillColor=none;" vertex="1" parent="WIyWlLk6GJQsqaUBKTNV-1">
          <mxGeometry x="130" y="268" width="40" height="30" as="geometry" />
        </mxCell>
      </root>
    </mxGraphModel>
  </diagram>
</mxfile>
